<svg width="96" height="96" viewBox="0 0 96 96" fill="none" xmlns="http://www.w3.org/2000/svg">
    <circle cx="48" cy="48" r="48" fill="#FAFBFD"/>
    <path fill-rule="evenodd" clip-rule="evenodd" d="M48 34.803C43.431 27.6165 35.247 27.882 31.062 31.8555C26.7705 35.934 26.622 44.0865 30.9105 52.2405C33.8385 58.1925 41.334 64.1655 47.598 68.133C47.844 68.289 48.156 68.289 48.402 68.133C54.666 64.1655 62.1615 58.1925 65.0895 52.2405C69.378 44.0865 69.2295 35.934 64.938 31.857C60.753 27.882 52.569 27.6165 48 34.8045V34.803V34.803ZM33.375 48H37.875C38.0745 48 38.265 47.9205 38.406 47.781L40.6005 45.585L43.179 52.029C43.2945 52.3185 43.578 52.506 43.8885 52.5C44.2005 52.494 44.4765 52.296 44.5815 52.002L47.5455 43.7025L49.9035 51.9555C49.989 52.254 50.247 52.4685 50.556 52.497C50.8635 52.5255 51.1575 52.362 51.2955 52.086L54.5805 45.516L56.844 47.781C56.985 47.9205 57.1755 48 57.375 48H62.625C63.039 48 63.375 47.664 63.375 47.25C63.375 46.836 63.039 46.5 62.625 46.5H57.6855L54.906 43.719C54.735 43.5495 54.4935 43.4715 54.255 43.509C54.0165 43.548 53.8125 43.6995 53.7045 43.914L50.817 49.6905L48.3465 41.0445C48.2565 40.731 47.9745 40.5105 47.649 40.5C47.3235 40.4895 47.028 40.6905 46.9185 40.998L43.836 49.632L41.571 43.971C41.478 43.737 41.2725 43.566 41.0265 43.515C40.779 43.464 40.5225 43.542 40.344 43.719L37.5645 46.5H33.375C32.961 46.5 32.625 46.836 32.625 47.25C32.625 47.664 32.961 48 33.375 48V48Z" fill="#4F83E9"/>
</svg>
