<svg width="96" height="96" viewBox="0 0 96 96" fill="none" xmlns="http://www.w3.org/2000/svg">
    <circle cx="48" cy="48" r="48" fill="#FAFBFD"/>
    <g clip-path="url(#clip0_0_1)">
    <path d="M51.6562 52.6031C52.2375 52.6031 52.7906 52.3594 53.1937 51.9375C53.5875 51.5156 53.7937 50.9438 53.775 50.3813L53.025 35.5125C52.9687 34.3875 52.0312 33.5063 50.9156 33.5063H45.1125C43.9875 33.5063 43.0594 34.3969 43.0031 35.5219L42.2531 50.3813C42.225 50.9531 42.4312 51.5156 42.8344 51.9375C43.2375 52.3594 43.7906 52.6031 44.3719 52.6031H51.6562ZM67.35 69.0844V71.3531C67.35 71.7094 67.0687 72 66.7031 72H29.2969C28.9312 72 28.65 71.7094 28.65 71.3531V69.0844C28.65 68.8969 28.7344 68.7094 28.8844 68.5969L31.5844 66.3281C31.7062 66.2344 31.8562 66.1688 32.0062 66.1688H44.4562V60.8344H51.5531V66.1688H63.9937C64.1437 66.1688 64.2844 66.225 64.4062 66.3281L67.1156 68.5969C67.2656 68.7188 67.35 68.8969 67.35 69.0844Z" fill="#4F83E9"/>
    <path d="M32.2219 36.4313C32.4656 36.375 32.7094 36.3563 32.9625 36.3563H35.8031C36.0656 36.3563 36.3188 36.3844 36.5719 36.4406L36.5906 31.7344C60.3844 31.7906 59.3813 31.7812 59.4656 31.7906V36.45C59.7094 36.3938 59.9531 36.3656 60.2063 36.3656H63.0469C63.3 36.3656 63.5438 36.3937 63.7875 36.4406V31.7906C63.7875 29.3812 61.8281 27.4312 59.4281 27.4312H51.5625V25.7531C51.5625 24.7969 50.775 24 49.8094 24H46.2094C45.2438 24 44.4563 24.7969 44.4563 25.7531V27.4219H36.5813C34.1719 27.4219 32.2219 29.3812 32.2219 31.7812V36.4313ZM38.3719 47.4844L37.7344 39.8625C37.6406 38.8687 36.7875 38.0812 35.7938 38.0812H32.9625C31.9594 38.0812 31.1156 38.8687 31.0219 39.8625L30.3844 47.4844C30.2906 48.6562 31.2281 49.5844 32.3156 49.5844H36.45C37.575 49.5844 38.4656 48.6094 38.3719 47.4844ZM60.2063 38.0812C59.2031 38.0812 58.3594 38.8687 58.2656 39.8625L57.6281 47.4844C57.5344 48.6094 58.425 49.5844 59.5594 49.5844H63.6937C64.8281 49.5844 65.7188 48.6094 65.625 47.4844L64.9875 39.8625C64.8938 38.8687 64.05 38.0812 63.0469 38.0812H60.2063ZM39.9563 59.1094H56.0531C57.2344 59.1094 58.1906 58.1531 58.1906 56.9719C58.1906 55.8 57.2344 54.8438 56.0531 54.8438H39.9563C38.775 54.8438 37.8188 55.8 37.8188 56.9719C37.8188 58.1531 38.775 59.1094 39.9563 59.1094Z" fill="#4F83E9"/>
    </g>
    <defs>
    <clipPath id="clip0_0_1">
    <rect width="48" height="48" fill="white" transform="translate(24 24)"/>
    </clipPath>
    </defs>
</svg>
