<svg width="45" height="45" viewBox="0 0 96 96" fill="none" xmlns="http://www.w3.org/2000/svg">
    <circle cx="48" cy="48" r="48" fill="#FAFBFD"/>
    <path d="M48 37.8225C51.81 37.8225 54.9075 34.725 54.9075 30.915C54.9075 27.0975 51.81 24 48 24C44.19 24 41.0925 27.0975 41.0925 30.9075C41.0925 34.7175 44.19 37.8225 48 37.8225ZM35.37 55.02H42.1275C46.5525 54.81 47.3325 52.0575 47.4075 51.735C47.46 51.4575 47.7 51.2625 47.9925 51.2625C48.2775 51.2625 48.5175 51.4575 48.5775 51.7425C48.585 51.7725 49.2525 54.8025 53.895 55.02H60.615C61.44 55.02 62.085 54.375 62.085 53.55V48.285C62.2125 42.45 52.98 41.1525 49.005 40.8675L48.7875 40.8525L51.0525 48.465L57.36 50.325C57.675 50.4225 57.855 50.7525 57.765 51.0675C57.69 51.315 57.45 51.495 57.195 51.495C57.135 51.495 57.075 51.4875 57.0225 51.4725L50.4 49.515C50.2125 49.4625 50.0625 49.3125 50.0025 49.1175L47.955 42.255L44.895 49.2675C44.8275 49.4175 44.7 49.5375 44.5425 49.5975L38.955 51.4725C38.91 51.4875 38.85 51.5025 38.775 51.5025C38.52 51.5025 38.295 51.3375 38.2125 51.0975C38.16 50.9475 38.1675 50.7825 38.2425 50.64C38.3175 50.4975 38.4375 50.3925 38.5875 50.3475L43.9125 48.5625L47.2725 40.86L47.025 40.875C43.035 41.1525 33.7575 42.435 33.885 48.27V53.565C33.9075 54.36 34.5675 55.02 35.37 55.02ZM63.63 63.8475C62.76 63.135 61.695 62.745 60.495 62.7L60.405 62.6925C60.03 62.6925 59.6475 62.73 59.2575 62.8125L52.68 64.6275L53.1375 64.785C55.215 65.4975 56.4825 67.0725 56.4525 68.895C56.43 69.99 55.95 70.9725 55.065 71.7375L54.75 72H60.3375C63.09 72 65.325 69.915 65.325 67.35C65.3325 66.0075 64.71 64.7325 63.63 63.8475Z" fill="#2465E3"/>
    <path d="M52.23 65.7675C51.57 65.61 50.85 65.4675 50.07 65.34L49.6725 65.2725H49.665C49.6275 65.265 49.5975 65.2575 49.545 65.2425L36.2475 62.6775C36.045 62.64 35.85 62.61 35.6175 62.595C35.58 62.595 35.535 62.5875 35.49 62.58L35.475 62.5725H35.415C35.28 62.565 35.145 62.5575 35.0175 62.5575C33.885 62.5575 32.88 62.8875 32.13 63.5175C31.185 64.305 30.6825 65.4825 30.6825 66.9375C30.6825 69.735 32.955 72.0075 35.7525 72.0075H50.97C50.9925 72.0075 51.4725 71.97 52.1175 71.8425C54 71.4675 55.23 70.3125 55.2675 68.88C55.2825 67.4325 54.0975 66.2175 52.23 65.7675ZM53.88 56.2125C50.5725 56.0625 48.9225 54.6525 48.12 53.505L48 53.325L47.88 53.505C47.085 54.6525 45.45 56.0625 42.165 56.2125H39.7425V58.8975C39.7425 59.0625 39.6675 59.2275 39.54 59.3475L36.975 61.59L49.755 64.7325C49.8 64.74 49.845 64.7475 49.89 64.755L49.935 64.77L59.0625 61.6275L56.46 59.3475C56.3325 59.235 56.2575 59.0625 56.2575 58.8975V56.2125H53.88Z" fill="#2465E3"/>
</svg>
