<svg width="120" height="59" viewBox="0 0 163 59" fill="none" xmlns="http://www.w3.org/2000/svg">
<path d="M0 16.0909C0 12.7337 2.73867 10.0121 6.117 10.0121C9.49532 10.0121 12.234 12.7337 12.234 16.0909V42.9091C12.234 46.2663 9.49532 48.9879 6.117 48.9879C2.73867 48.9879 0 46.2663 0 42.9091V16.0909Z" fill="#2465E3"/>
<path d="M116.943 16.0909C116.943 12.7337 119.681 10.0121 123.06 10.0121C126.438 10.0121 129.177 12.7337 129.177 16.0909V42.9091C129.177 46.2663 126.438 48.9879 123.06 48.9879C119.681 48.9879 116.943 46.2663 116.943 42.9091V16.0909Z" fill="#2465E3"/>
<path d="M33.8234 16.0909C33.8234 12.7337 36.5621 10.0121 39.9404 10.0121C43.3187 10.0121 46.0574 12.7337 46.0574 16.0909V42.9091C46.0574 46.2663 43.3187 48.9879 39.9404 48.9879C36.5621 48.9879 33.8234 46.2663 33.8234 42.9091V16.0909Z" fill="#2465E3"/>
<path d="M150.766 16.0909C150.766 12.7337 153.505 10.0121 156.883 10.0121C160.261 10.0121 163 12.7337 163 16.0909V42.9091C163 46.2663 160.261 48.9879 156.883 48.9879C153.505 48.9879 150.766 46.2663 150.766 42.9091V16.0909Z" fill="#2465E3"/>
<path d="M16.9117 6.07879C16.9117 2.72157 19.6504 0 23.0287 0C26.407 0 29.1457 2.72157 29.1457 6.07879V52.9212C29.1457 56.2784 26.407 59 23.0287 59C19.6504 59 16.9117 56.2784 16.9117 52.9212V6.07879Z" fill="#2465E3"/>
<path d="M57.7517 35.5788C54.3733 35.5788 51.6347 32.8572 51.6347 29.5C51.6347 26.1428 54.3733 23.4212 57.7517 23.4212L104.889 23.4212C108.267 23.4212 111.006 26.1428 111.006 29.5C111.006 32.8572 108.267 35.5788 104.889 35.5788L57.7517 35.5788Z" fill="#2465E3"/>
<path d="M133.854 6.07879C133.854 2.72157 136.593 0 139.971 0C143.35 0 146.088 2.72157 146.088 6.07879V52.9212C146.088 56.2784 143.35 59 139.971 59C136.593 59 133.854 56.2784 133.854 52.9212V6.07879Z" fill="#2465E3"/>
<path d="M70.2984 18.4385C69.6984 18.4385 69.2279 18.276 68.887 17.9512C68.5597 17.6129 68.3961 17.1324 68.3961 16.5098V5.87209C68.3961 5.24952 68.5597 4.77583 68.887 4.45101C69.2279 4.11266 69.7188 3.94348 70.3597 3.94348H77.1712C77.6621 3.94348 78.0303 4.06529 78.2758 4.3089C78.5213 4.55252 78.644 4.9044 78.644 5.36456C78.644 5.83825 78.5213 6.20367 78.2758 6.46082C78.0303 6.70443 77.6621 6.82624 77.1712 6.82624H72.1598V9.70899H76.7212C77.1985 9.70899 77.5599 9.8308 77.8053 10.0744C78.0644 10.318 78.194 10.6699 78.194 11.1301C78.194 11.6038 78.0644 11.9624 77.8053 12.206C77.5599 12.4496 77.1985 12.5714 76.7212 12.5714H72.1598V16.5098C72.1598 17.7956 71.5393 18.4385 70.2984 18.4385Z" fill="#2465E3"/>
<path d="M82.6151 18.4385C82.0424 18.4385 81.5992 18.2693 81.2855 17.9309C80.9719 17.5926 80.8151 17.1053 80.8151 16.4692V10.0541C80.8151 9.41801 80.9719 8.93078 81.2855 8.59243C81.5992 8.25408 82.0424 8.0849 82.6151 8.0849C83.2015 8.0849 83.6515 8.25408 83.9651 8.59243C84.2924 8.93078 84.4561 9.41801 84.4561 10.0541V16.4692C84.4561 17.1053 84.2992 17.5926 83.9856 17.9309C83.672 18.2693 83.2151 18.4385 82.6151 18.4385ZM82.6151 6.64353C81.9742 6.64353 81.4765 6.49465 81.1219 6.1969C80.781 5.89915 80.6105 5.46606 80.6105 4.89763C80.6105 4.34274 80.781 3.91642 81.1219 3.61867C81.4765 3.32092 81.9742 3.17204 82.6151 3.17204C83.2833 3.17204 83.7879 3.32092 84.1288 3.61867C84.4697 3.91642 84.6402 4.34274 84.6402 4.89763C84.6402 5.46606 84.4697 5.89915 84.1288 6.1969C83.7879 6.49465 83.2833 6.64353 82.6151 6.64353Z" fill="#2465E3"/>
<path d="M91.8454 18.4791C90.8226 18.4791 89.9772 18.3234 89.309 18.0121C88.6544 17.7008 88.1635 17.2339 87.8362 16.6114C87.509 15.9753 87.3453 15.1835 87.3453 14.2361V10.9271H86.6498C86.2135 10.9271 85.8726 10.812 85.6271 10.5819C85.3953 10.3519 85.2794 10.0203 85.2794 9.58718C85.2794 9.15409 85.3953 8.82928 85.6271 8.61273C85.8726 8.38265 86.2135 8.26761 86.6498 8.26761H87.3453V7.00895C87.3453 6.41345 87.5021 5.96006 87.8158 5.64877C88.1294 5.33749 88.5794 5.18185 89.1658 5.18185C89.7522 5.18185 90.2022 5.33749 90.5158 5.64877C90.8295 5.96006 90.9863 6.41345 90.9863 7.00895V8.26761H92.6636C93.1136 8.26761 93.4545 8.38265 93.6863 8.61273C93.9318 8.82928 94.0545 9.15409 94.0545 9.58718C94.0545 10.0203 93.9318 10.3519 93.6863 10.5819C93.4545 10.812 93.1136 10.9271 92.6636 10.9271H90.9863V14.1143C90.9863 14.6151 91.1022 14.9873 91.334 15.2309C91.5795 15.461 91.9613 15.576 92.4795 15.576C92.6704 15.576 92.8545 15.5557 93.0318 15.5151C93.209 15.4745 93.3727 15.4542 93.5227 15.4542C93.7409 15.4407 93.9182 15.5083 94.0545 15.6572C94.1909 15.7925 94.2591 16.1106 94.2591 16.6114C94.2591 17.0174 94.1977 17.3625 94.075 17.6467C93.9522 17.9174 93.7341 18.1136 93.4204 18.2354C93.2295 18.3031 92.9704 18.3572 92.6431 18.3979C92.3158 18.452 92.0499 18.4791 91.8454 18.4791Z" fill="#2465E3"/>
<path d="M57.775 57.0474C57.0867 57.0474 56.5541 56.8582 56.1772 56.4796C55.8002 56.1011 55.6118 55.5498 55.6118 54.8257V46.6549C55.6118 45.9473 55.792 45.4042 56.1526 45.0257C56.5295 44.6472 57.0621 44.458 57.7504 44.458C58.4388 44.458 58.9632 44.6472 59.3237 45.0257C59.6843 45.4042 59.8645 45.9473 59.8645 46.6549V47.8152L59.5941 46.8031C59.9875 46.0296 60.5447 45.4371 61.2658 45.0257C62.0032 44.6143 62.839 44.4086 63.7732 44.4086C64.7401 44.4086 65.5349 44.5979 66.1577 44.9764C66.7804 45.3384 67.2475 45.9144 67.5589 46.7043C67.8703 47.4778 68.0259 48.457 68.0259 49.6419V54.8257C68.0259 55.5498 67.8375 56.1011 67.4606 56.4796C67.0836 56.8582 66.5428 57.0474 65.8381 57.0474C65.1334 57.0474 64.5926 56.8582 64.2157 56.4796C63.8387 56.1011 63.6503 55.5498 63.6503 54.8257V49.8147C63.6503 49.0741 63.5191 48.5475 63.2569 48.2348C63.0111 47.9221 62.6424 47.7658 62.1507 47.7658C61.4952 47.7658 60.9708 47.9797 60.5774 48.4076C60.1841 48.819 59.9875 49.3785 59.9875 50.0862V54.8257C59.9875 56.3069 59.25 57.0474 57.775 57.0474Z" fill="#2465E3"/>
<path d="M77.1078 57.0968C75.6329 57.0968 74.3546 56.8417 73.273 56.3315C72.2077 55.8049 71.3883 55.0644 70.8147 54.1099C70.2411 53.1554 69.9543 52.0281 69.9543 50.728C69.9543 49.4773 70.2247 48.3829 70.7656 47.4449C71.3228 46.4904 72.0766 45.7498 73.0272 45.2232C73.9941 44.6801 75.0921 44.4086 76.3212 44.4086C77.2226 44.4086 78.042 44.5567 78.7795 44.8529C79.5169 45.1327 80.1479 45.5523 80.6723 46.1119C81.1967 46.6549 81.5901 47.3132 81.8523 48.0867C82.1309 48.8602 82.2702 49.7241 82.2702 50.6786C82.2702 51.0078 82.1801 51.2546 81.9998 51.4192C81.8195 51.5673 81.5327 51.6414 81.1394 51.6414H73.6171V49.5678H79.0745L78.6811 49.8887C78.6811 49.2798 78.5992 48.7861 78.4353 48.4076C78.2714 48.0291 78.0256 47.7411 77.6978 47.5436C77.3865 47.3461 76.9931 47.2474 76.5179 47.2474C76.0098 47.2474 75.5673 47.3708 75.1904 47.6177C74.8299 47.8481 74.5513 48.1937 74.3546 48.6544C74.158 49.1152 74.0596 49.6912 74.0596 50.3824V50.6046C74.0596 51.773 74.3136 52.6123 74.8217 53.1225C75.3461 53.6162 76.1491 53.863 77.2308 53.863C77.5913 53.863 78.001 53.8219 78.4599 53.7396C78.9352 53.6409 79.3858 53.5092 79.8119 53.3446C80.238 53.1801 80.6068 53.1554 80.9182 53.2706C81.2295 53.3693 81.4672 53.5503 81.631 53.8136C81.8113 54.0605 81.9096 54.3485 81.926 54.6776C81.9424 54.9903 81.8687 55.303 81.7048 55.6157C81.5409 55.9119 81.2705 56.1423 80.8936 56.3069C80.32 56.5702 79.7054 56.7676 79.0499 56.8993C78.4107 57.0309 77.7634 57.0968 77.1078 57.0968Z" fill="#2465E3"/>
<path d="M88.9735 57.0968C88.2524 57.0968 87.515 57.0392 86.7611 56.924C86.0236 56.8252 85.3517 56.636 84.7453 56.3562C84.3356 56.1917 84.0406 55.9695 83.8604 55.6897C83.6965 55.41 83.6145 55.1137 83.6145 54.8011C83.6309 54.4884 83.7211 54.2086 83.885 53.9618C84.0652 53.6984 84.2947 53.5174 84.5733 53.4187C84.8683 53.3035 85.196 53.3117 85.5566 53.4434C86.2449 53.6902 86.8594 53.8712 87.4003 53.9864C87.9575 54.0852 88.4901 54.1346 88.9981 54.1346C89.6045 54.1346 90.0388 54.0523 90.301 53.8877C90.5632 53.7067 90.6943 53.4763 90.6943 53.1965C90.6943 52.9497 90.6042 52.7604 90.4239 52.6288C90.26 52.4971 90.0224 52.4066 89.711 52.3572L86.9824 51.9129C85.9663 51.7319 85.1796 51.3616 84.6224 50.8021C84.0652 50.2261 83.7866 49.4773 83.7866 48.5557C83.7866 47.7 84.0243 46.9676 84.4995 46.3587C84.9912 45.7334 85.6549 45.2561 86.4907 44.927C87.3429 44.5814 88.318 44.4086 89.416 44.4086C90.1535 44.4086 90.8254 44.4662 91.4318 44.5814C92.0382 44.6801 92.6281 44.8694 93.2017 45.1492C93.5623 45.2973 93.8163 45.5112 93.9638 45.791C94.1113 46.0707 94.1687 46.367 94.1359 46.6796C94.1031 46.9759 93.9966 47.2556 93.8163 47.5189C93.6524 47.7658 93.423 47.9386 93.128 48.0373C92.833 48.1196 92.4888 48.0949 92.0955 47.9633C91.5547 47.7493 91.0712 47.593 90.6451 47.4942C90.2354 47.3955 89.8503 47.3461 89.4898 47.3461C88.8178 47.3461 88.3426 47.4366 88.064 47.6177C87.7854 47.7987 87.6461 48.0291 87.6461 48.3089C87.6461 48.5228 87.7198 48.7038 87.8673 48.8519C88.0148 48.9836 88.2443 49.0741 88.5556 49.1235L91.2843 49.5925C92.3332 49.757 93.1362 50.1191 93.6934 50.6786C94.267 51.2217 94.5538 51.9623 94.5538 52.9003C94.5538 54.2333 94.0457 55.2701 93.0297 56.0106C92.0136 56.7347 90.6615 57.0968 88.9735 57.0968Z" fill="#2465E3"/>
<path d="M101.169 57.0968C100.448 57.0968 99.7102 57.0392 98.9564 56.924C98.2189 56.8252 97.547 56.636 96.9406 56.3562C96.5309 56.1917 96.2359 55.9695 96.0556 55.6897C95.8917 55.41 95.8098 55.1137 95.8098 54.8011C95.8262 54.4884 95.9163 54.2086 96.0802 53.9618C96.2605 53.6984 96.4899 53.5174 96.7685 53.4187C97.0635 53.3035 97.3913 53.3117 97.7518 53.4434C98.4401 53.6902 99.0547 53.8712 99.5955 53.9864C100.153 54.0852 100.685 54.1346 101.193 54.1346C101.8 54.1346 102.234 54.0523 102.496 53.8877C102.758 53.7067 102.89 53.4763 102.89 53.1965C102.89 52.9497 102.799 52.7604 102.619 52.6288C102.455 52.4971 102.218 52.4066 101.906 52.3572L99.1776 51.9129C98.1615 51.7319 97.3749 51.3616 96.8177 50.8021C96.2605 50.2261 95.9819 49.4773 95.9819 48.5557C95.9819 47.7 96.2195 46.9676 96.6948 46.3587C97.1864 45.7334 97.8501 45.2561 98.686 44.927C99.5381 44.5814 100.513 44.4086 101.611 44.4086C102.349 44.4086 103.021 44.4662 103.627 44.5814C104.233 44.6801 104.823 44.8694 105.397 45.1492C105.758 45.2973 106.012 45.5112 106.159 45.791C106.307 46.0707 106.364 46.367 106.331 46.6796C106.298 46.9759 106.192 47.2556 106.012 47.5189C105.848 47.7658 105.618 47.9386 105.323 48.0373C105.028 48.1196 104.684 48.0949 104.291 47.9633C103.75 47.7493 103.266 47.593 102.84 47.4942C102.431 47.3955 102.046 47.3461 101.685 47.3461C101.013 47.3461 100.538 47.4366 100.259 47.6177C99.9806 47.7987 99.8413 48.0291 99.8413 48.3089C99.8413 48.5228 99.9151 48.7038 100.063 48.8519C100.21 48.9836 100.44 49.0741 100.751 49.1235L103.48 49.5925C104.528 49.757 105.331 50.1191 105.889 50.6786C106.462 51.2217 106.749 51.9623 106.749 52.9003C106.749 54.2333 106.241 55.2701 105.225 56.0106C104.209 56.7347 102.857 57.0968 101.169 57.0968Z" fill="#2465E3"/>
</svg>
