<svg width="120" height="59" viewBox="0 0 273 99" fill="none" xmlns="http://www.w3.org/2000/svg">
    <path d="M0 27C0 21.3667 4.58686 16.8 10.245 16.8C15.9032 16.8 20.4901 21.3667 20.4901 27V72C20.4901 77.6333 15.9032 82.2 10.245 82.2C4.58686 82.2 0 77.6333 0 72V27Z" fill="#FAFBFD"/>
    <path d="M195.861 27C195.861 21.3667 200.448 16.8 206.106 16.8C211.764 16.8 216.351 21.3667 216.351 27V72C216.351 77.6333 211.764 82.2 206.106 82.2C200.448 82.2 195.861 77.6333 195.861 72V27Z" fill="#FAFBFD"/>
    <path d="M56.649 27C56.649 21.3667 61.2359 16.8 66.894 16.8C72.5522 16.8 77.1391 21.3667 77.1391 27V72C77.1391 77.6333 72.5522 82.2 66.894 82.2C61.2359 82.2 56.649 77.6333 56.649 72V27Z" fill="#FAFBFD"/>
    <path d="M252.51 27C252.51 21.3667 257.097 16.8 262.755 16.8C268.413 16.8 273 21.3667 273 27V72C273 77.6333 268.413 82.2 262.755 82.2C257.097 82.2 252.51 77.6333 252.51 72V27Z" fill="#FAFBFD"/>
    <path d="M28.3245 10.2C28.3245 4.5667 32.9114 0 38.5695 0C44.2277 0 48.8146 4.5667 48.8146 10.2V88.8C48.8146 94.4333 44.2277 99 38.5695 99C32.9114 99 28.3245 94.4333 28.3245 88.8V10.2Z" fill="#FAFBFD"/>
    <path d="M96.7252 59.7C91.067 59.7 86.4801 55.1333 86.4801 49.5C86.4801 43.8667 91.067 39.3 96.7252 39.3L175.672 39.3C181.33 39.3 185.917 43.8667 185.917 49.5C185.917 55.1333 181.33 59.7 175.672 59.7L96.7252 59.7Z" fill="#FAFBFD"/>
    <path d="M224.185 10.2C224.185 4.5667 228.772 0 234.43 0C240.089 0 244.675 4.5667 244.675 10.2V88.8C244.675 94.4333 240.089 99 234.43 99C228.772 99 224.185 94.4333 224.185 88.8V10.2Z" fill="#FAFBFD"/>
    <path d="M117.739 30.9391C116.734 30.9391 115.946 30.6666 115.375 30.1216C114.827 29.5538 114.553 28.7476 114.553 27.703V9.85316C114.553 8.80852 114.827 8.01368 115.375 7.46865C115.946 6.9009 116.768 6.61703 117.842 6.61703H129.25C130.072 6.61703 130.689 6.82142 131.1 7.23019C131.511 7.63897 131.717 8.22942 131.717 9.00155C131.717 9.79639 131.511 10.4095 131.1 10.841C130.689 11.2498 130.072 11.4542 129.25 11.4542H120.857V16.2914H128.496C129.296 16.2914 129.901 16.4957 130.312 16.9045C130.746 17.3133 130.963 17.9037 130.963 18.6759C130.963 19.4707 130.746 20.0725 130.312 20.4813C129.901 20.8901 129.296 21.0945 128.496 21.0945H120.857V27.703C120.857 29.8604 119.817 30.9391 117.739 30.9391Z" fill="#FAFBFD"/>
    <path d="M138.368 30.9391C137.408 30.9391 136.666 30.6552 136.141 30.0875C135.616 29.5197 135.353 28.7022 135.353 27.6348V16.8705C135.353 15.8031 135.616 14.9855 136.141 14.4178C136.666 13.8501 137.408 13.5662 138.368 13.5662C139.35 13.5662 140.103 13.8501 140.629 14.4178C141.177 14.9855 141.451 15.8031 141.451 16.8705V27.6348C141.451 28.7022 141.188 29.5197 140.663 30.0875C140.138 30.6552 139.373 30.9391 138.368 30.9391ZM138.368 11.1476C137.294 11.1476 136.461 10.8978 135.867 10.3982C135.296 9.89858 135.01 9.17187 135.01 8.21806C135.01 7.28697 135.296 6.57161 135.867 6.072C136.461 5.57239 137.294 5.32258 138.368 5.32258C139.487 5.32258 140.332 5.57239 140.903 6.072C141.474 6.57161 141.759 7.28697 141.759 8.21806C141.759 9.17187 141.474 9.89858 140.903 10.3982C140.332 10.8978 139.487 11.1476 138.368 11.1476Z" fill="#FAFBFD"/>
    <path d="M153.827 31.0072C152.114 31.0072 150.698 30.7461 149.579 30.2237C148.483 29.7014 147.66 28.9179 147.112 27.8733C146.564 26.8059 146.29 25.4774 146.29 23.8877V18.3352H145.125C144.394 18.3352 143.823 18.1422 143.412 17.7561C143.024 17.3701 142.83 16.8137 142.83 16.087C142.83 15.3603 143.024 14.8152 143.412 14.4519C143.823 14.0658 144.394 13.8728 145.125 13.8728H146.29V11.7608C146.29 10.7615 146.553 10.0008 147.078 9.47845C147.603 8.95613 148.357 8.69497 149.339 8.69497C150.321 8.69497 151.075 8.95613 151.6 9.47845C152.125 10.0008 152.388 10.7615 152.388 11.7608V13.8728H155.197C155.951 13.8728 156.522 14.0658 156.91 14.4519C157.321 14.8152 157.527 15.3603 157.527 16.087C157.527 16.8137 157.321 17.3701 156.91 17.7561C156.522 18.1422 155.951 18.3352 155.197 18.3352H152.388V23.6834C152.388 24.5236 152.582 25.1481 152.97 25.5569C153.382 25.943 154.021 26.136 154.889 26.136C155.209 26.136 155.517 26.1019 155.814 26.0338C156.111 25.9657 156.385 25.9316 156.636 25.9316C157.002 25.9089 157.298 26.0225 157.527 26.2723C157.755 26.4994 157.869 27.033 157.869 27.8733C157.869 28.5546 157.767 29.1337 157.561 29.6106C157.356 30.0648 156.99 30.3941 156.465 30.5985C156.145 30.712 155.711 30.8028 155.163 30.871C154.615 30.9618 154.17 31.0072 153.827 31.0072Z" fill="#FAFBFD"/>
    <path d="M96.7643 95.7236C95.6115 95.7236 94.7194 95.4061 94.0881 94.7709C93.4568 94.1358 93.1412 93.2108 93.1412 91.9957V78.2854C93.1412 77.098 93.4431 76.1868 94.047 75.5517C94.6783 74.9165 95.5703 74.599 96.7231 74.599C97.876 74.599 98.7543 74.9165 99.3581 75.5517C99.962 76.1868 100.264 77.098 100.264 78.2854V80.2322L99.811 78.534C100.47 77.2361 101.403 76.242 102.611 75.5517C103.846 74.8613 105.246 74.5161 106.81 74.5161C108.43 74.5161 109.761 74.8337 110.804 75.4688C111.847 76.0763 112.629 77.0428 113.151 78.3683C113.672 79.6661 113.933 81.3092 113.933 83.2974V91.9957C113.933 93.2108 113.617 94.1358 112.986 94.7709C112.355 95.4061 111.449 95.7236 110.269 95.7236C109.088 95.7236 108.183 95.4061 107.551 94.7709C106.92 94.1358 106.604 93.2108 106.604 91.9957V83.5873C106.604 82.3447 106.385 81.461 105.946 80.9364C105.534 80.4117 104.916 80.1494 104.093 80.1494C102.995 80.1494 102.117 80.5084 101.458 81.2263C100.799 81.9167 100.47 82.8555 100.47 84.0429V91.9957C100.47 94.481 99.2346 95.7236 96.7643 95.7236Z" fill="#FAFBFD"/>
    <path d="M129.144 95.8065C126.674 95.8065 124.533 95.3784 122.721 94.5224C120.937 93.6388 119.564 92.3961 118.604 90.7945C117.643 89.1929 117.163 87.3014 117.163 85.1199C117.163 83.0212 117.616 81.1849 118.521 79.6109C119.455 78.0093 120.717 76.7667 122.309 75.883C123.929 74.9718 125.768 74.5161 127.826 74.5161C129.336 74.5161 130.708 74.7647 131.944 75.2617C133.179 75.7311 134.235 76.4353 135.114 77.3742C135.992 78.2854 136.651 79.39 137.09 80.6878C137.557 81.9857 137.79 83.4354 137.79 85.037C137.79 85.5893 137.639 86.0035 137.337 86.2797C137.035 86.5282 136.555 86.6525 135.896 86.6525H123.297V83.1731H132.438L131.779 83.7116C131.779 82.6898 131.642 81.8614 131.367 81.2263C131.093 80.5912 130.681 80.1079 130.132 79.7766C129.61 79.4452 128.952 79.2795 128.156 79.2795C127.305 79.2795 126.564 79.4866 125.932 79.9008C125.329 80.2874 124.862 80.8673 124.533 81.6405C124.203 82.4137 124.038 83.3802 124.038 84.54V84.9128C124.038 86.8734 124.464 88.2817 125.315 89.1377C126.193 89.9661 127.538 90.3803 129.35 90.3803C129.954 90.3803 130.64 90.3113 131.408 90.1732C132.204 90.0075 132.959 89.7866 133.673 89.5105C134.386 89.2343 135.004 89.1929 135.525 89.3862C136.047 89.5519 136.445 89.8557 136.719 90.2975C137.021 90.7117 137.186 91.1949 137.214 91.7472C137.241 92.2719 137.117 92.7965 136.843 93.3212C136.569 93.8183 136.116 94.2049 135.484 94.481C134.524 94.9228 133.494 95.2542 132.396 95.4751C131.326 95.696 130.242 95.8065 129.144 95.8065Z" fill="#FAFBFD"/>
    <path d="M149.017 95.8065C147.809 95.8065 146.574 95.7098 145.312 95.5165C144.076 95.3508 142.951 95.0333 141.935 94.5638C141.249 94.2877 140.755 93.9149 140.453 93.4455C140.179 92.976 140.042 92.479 140.042 91.9543C140.069 91.4297 140.22 90.9602 140.494 90.546C140.796 90.1042 141.181 89.8004 141.647 89.6348C142.141 89.4415 142.69 89.4553 143.294 89.6762C144.447 90.0904 145.476 90.3941 146.382 90.5874C147.315 90.7531 148.207 90.836 149.058 90.836C150.074 90.836 150.801 90.6979 151.24 90.4217C151.679 90.118 151.899 89.7314 151.899 89.262C151.899 88.8478 151.748 88.5302 151.446 88.3093C151.172 88.0884 150.774 87.9365 150.252 87.8537L145.682 87.1081C143.98 86.8043 142.663 86.183 141.73 85.2441C140.796 84.2776 140.33 83.0212 140.33 81.4748C140.33 80.0389 140.728 78.8101 141.524 77.7884C142.347 76.7391 143.459 75.9383 144.859 75.386C146.286 74.8061 147.919 74.5161 149.758 74.5161C150.993 74.5161 152.119 74.6128 153.134 74.8061C154.15 74.9718 155.138 75.2893 156.099 75.7588C156.702 76.0073 157.128 76.3663 157.375 76.8357C157.622 77.3051 157.718 77.8022 157.663 78.3269C157.608 78.8239 157.43 79.2933 157.128 79.7352C156.853 80.1494 156.469 80.4393 155.975 80.605C155.481 80.7431 154.905 80.7016 154.246 80.4807C153.34 80.1218 152.53 79.8594 151.817 79.6937C151.131 79.5281 150.485 79.4452 149.882 79.4452C148.756 79.4452 147.96 79.5971 147.494 79.9008C147.027 80.2046 146.794 80.5912 146.794 81.0606C146.794 81.4196 146.917 81.7234 147.164 81.9719C147.411 82.1928 147.796 82.3447 148.317 82.4275L152.887 83.2145C154.644 83.4907 155.989 84.0982 156.922 85.037C157.883 85.9483 158.363 87.1909 158.363 88.7649C158.363 91.0016 157.512 92.7413 155.81 93.9839C154.109 95.199 151.844 95.8065 149.017 95.8065Z" fill="#FAFBFD"/>
    <path d="M169.442 95.8065C168.234 95.8065 166.999 95.7098 165.737 95.5165C164.502 95.3508 163.376 95.0333 162.361 94.5638C161.674 94.2877 161.18 93.9149 160.878 93.4455C160.604 92.976 160.467 92.479 160.467 91.9543C160.494 91.4297 160.645 90.9602 160.92 90.546C161.222 90.1042 161.606 89.8004 162.072 89.6348C162.566 89.4415 163.115 89.4553 163.719 89.6762C164.872 90.0904 165.901 90.3941 166.807 90.5874C167.74 90.7531 168.632 90.836 169.483 90.836C170.499 90.836 171.226 90.6979 171.665 90.4217C172.105 90.118 172.324 89.7314 172.324 89.262C172.324 88.8478 172.173 88.5302 171.871 88.3093C171.597 88.0884 171.199 87.9365 170.677 87.8537L166.107 87.1081C164.405 86.8043 163.088 86.183 162.155 85.2441C161.222 84.2776 160.755 83.0212 160.755 81.4748C160.755 80.0389 161.153 78.8101 161.949 77.7884C162.772 76.7391 163.884 75.9383 165.284 75.386C166.711 74.8061 168.344 74.5161 170.183 74.5161C171.418 74.5161 172.544 74.6128 173.559 74.8061C174.575 74.9718 175.563 75.2893 176.524 75.7588C177.128 76.0073 177.553 76.3663 177.8 76.8357C178.047 77.3051 178.143 77.8022 178.088 78.3269C178.033 78.8239 177.855 79.2933 177.553 79.7352C177.279 80.1494 176.894 80.4393 176.4 80.605C175.906 80.7431 175.33 80.7016 174.671 80.4807C173.765 80.1218 172.956 79.8594 172.242 79.6937C171.556 79.5281 170.911 79.4452 170.307 79.4452C169.181 79.4452 168.385 79.5971 167.919 79.9008C167.452 80.2046 167.219 80.5912 167.219 81.0606C167.219 81.4196 167.342 81.7234 167.589 81.9719C167.836 82.1928 168.221 82.3447 168.742 82.4275L173.312 83.2145C175.069 83.4907 176.414 84.0982 177.347 85.037C178.308 85.9483 178.788 87.1909 178.788 88.7649C178.788 91.0016 177.937 92.7413 176.236 93.9839C174.534 95.199 172.269 95.8065 169.442 95.8065Z" fill="#FAFBFD"/>
    </svg>
